# WaveFront *.obj file (generated by Cinema 4D)

mtllib ./star.mtl

v 34.88529205322266 167.52374267578125 50
v -31.67556762695312 167.56959533691406 50
v -64.26746368408203 84.28052520751953 50
v -153.46133422851562 80.21829223632812 50
v -174.55181884765625 16.46781730651855 50
v -105.55149078369141 -40.50791168212891 50
v -129.00433349609375 -126.62449645996094 50
v -75.67966461181641 -166.67881774902344 50
v -0.76923370361328 -118.39595794677734 50
v 73.20224761962891 -167.56959533691406 50
v 127.47180938720703 -128.54713439941406 50
v 105.27683258056641 -41.73029327392578 50
v 174.55181884765625 14.26295948028564 50
v 154.34292602539062 78.19686889648438 50
v 66.03206634521484 83.52029418945312 50
v 119.51671600341797 29.23837471008301 50
v 56.798095703125 -25.3984375 50
v 74.47048187255859 -106.92538452148438 50
v 3.09120178222656 -63.90060806274414 50
v -68.78269195556641 -105.74710845947266 50
v -50.18405914306641 -24.51120567321777 50
v -112.27153778076172 31.15396308898926 50
v -29.39453125 38.32944488525391 50
v 4.10896301269531 114.57883453369141 50
v 36.7303466796875 37.78089141845703 50
v 34.88529205322266 167.52374267578125 -50
v -31.67556762695312 167.56959533691406 -50
v -64.26746368408203 84.28052520751953 -50
v -153.46133422851562 80.21829223632812 -50
v -174.55181884765625 16.46781730651855 -50
v -105.55149078369141 -40.50791168212891 -50
v -129.00433349609375 -126.62449645996094 -50
v -75.67966461181641 -166.67881774902344 -50
v -0.76923370361328 -118.39595794677734 -50
v 73.20224761962891 -167.56959533691406 -50
v 127.47180938720703 -128.54713439941406 -50
v 105.27683258056641 -41.73029327392578 -50
v 174.55181884765625 14.26295948028564 -50
v 154.34292602539062 78.19686889648438 -50
v 66.03206634521484 83.52029418945312 -50
v 119.51671600341797 29.23837471008301 -50
v 56.798095703125 -25.3984375 -50
v 74.47048187255859 -106.92538452148438 -50
v 3.09120178222656 -63.90060806274414 -50
v -68.78269195556641 -105.74710845947266 -50
v -50.18405914306641 -24.51120567321777 -50
v -112.27153778076172 31.15396308898926 -50
v -29.39453125 38.32944488525391 -50
v 4.10896301269531 114.57883453369141 -50
v 36.7303466796875 37.78089141845703 -50
# 50 vertices

vn 0.00068752135849 0.99999976158142 0
vn -0.93124783039093 0.36438637971878 0
vn -0.04547003284097 0.99896568059921 0
vn -0.94939959049225 0.31407064199448 0
vn -0.63670134544373 -0.77111047506332 0
vn -0.9648625254631 0.26275512576103 0
vn -0.60058486461639 -0.79956102371216 0
vn 0.54175382852554 -0.84053719043732 0
vn -0.55361074209213 -0.83277559280396 0
vn 0.58379834890366 -0.81189870834351 0
vn 0.96884578466415 0.24766476452351 0
vn 0.62860113382339 -0.77772784233093 0
vn 0.95350515842438 0.30137664079666 0
vn 0.06015633419156 0.99818897247314 0
vn 0.93762880563736 0.3476380109787 0
vn -0.65685701370239 0.75401520729065 0
vn -0.97730255126953 -0.2118483632803 0
vn 0.51622730493546 0.85645163059235 0
vn -0.50313633680344 0.86420702934265 0
vn 0.97478103637695 -0.22316336631775 0
vn 0.66754084825516 0.74457317590714 0
vn 0.0862520262599 -0.99627333879471 0
vn 0.91552501916885 -0.40226101875305 0
vn -0.92041552066803 -0.39094144105911 0
vn -0.10262833535671 -0.99471974372864 0
vn 0 0 1
vn 0 0 -1
# 27 normals

vt 0 1 0
vt 0.05427111685276 1 0
vt 0.05427111685276 0 0
vt 0 0 0
vt 0.12719598412514 1 0
vt 0.12719598412514 0 0
vt 0.19999650120735 1 0
vt 0.19999650120735 0 0
vt 0.25474679470062 1 0
vt 0.25474679470062 0 0
vt 0.32770800590515 1 0
vt 0.32770800590515 0 0
vt 0.40048140287399 1 0
vt 0.40048140287399 0 0
vt 0.4548596739769 1 0
vt 0.4548596739769 0 0
vt 0.52752661705017 1 0
vt 0.52752661705017 0 0
vt 0.59995067119598 1 0
vt 0.59995067119598 0 0
vt 0.65445160865784 1 0
vt 0.65445160865784 0 0
vt 0.72751522064209 1 0
vt 0.72751522064209 0 0
vt 0.80014300346375 1 0
vt 0.80014300346375 0 0
vt 0.85481441020966 1 0
vt 0.85481441020966 0 0
vt 0.92695033550262 1 0
vt 0.92695033550262 0 0
vt 1 1 0
vt 1 0 0
vt 0.0998582392931 1 0
vt 0.0998582392931 0 0
vt 0.20000582933426 1 0
vt 0.20000582933426 0 0
vt 0.30006110668182 1 0
vt 0.30006110668182 0 0
vt 0.39990621805191 1 0
vt 0.39990621805191 0 0
vt 0.49995464086533 1 0
vt 0.49995464086533 0 0
vt 0.60006272792816 1 0
vt 0.60006272792816 0 0
vt 0.69993019104004 1 0
vt 0.69993019104004 0 0
vt 0.79991579055786 1 0
vt 0.79991579055786 0 0
vt 0.90008580684662 1 0
vt 0.90008580684662 0 0
vt 0.80156326293945 0.40046489238739 0
vt 0.71331924200058 0.21371483802795 0
vt 0.66269701719284 0.44724714756012 0
vt 0.84235310554504 0.60375308990479 0
vt 0.60521328449249 0.62822294235229 0
vt 0.51177006959915 0.84820914268494 0
vt 0.68914747238159 0.75924253463745 0
vt 0.49779656529427 0.18085765838623 0
vt 0.30297347903252 0.21709001064301 0
vt 0.50885474681854 0.33695840835571 0
vt 0.94211208820343 0.74399369955063 0
vt 1 0.56085634231567 0
vt 0.86514043807983 0.15177977085114 0
vt 0.70968639850616 0.04000079631805 0
vt 0.19765003025532 0.40396630764008 0
vt 0.17840054631233 0.60924023389816 0
vt 0.3562488257885 0.44978857040405 0
vt 0.3159071803093 0.76142019033432 0
vt 0.41580006480217 0.62979429960251 0
vt 0.40926599502563 1 0
vt 0.59992825984955 0.99986863136292 0
vt 0.28321722149849 0.04255247116089 0
vt 0.13046984374523 0.15728712081909 0
vt 0 0.56717211008072 0
vt 0.06041320413351 0.74978399276733 0
# 75 texture coordinates

o star.1
usemtl default
f 26/4/1 27/3/1 2/2/1 1/1/1
f 27/3/2 28/6/2 3/5/2 2/2/2
f 28/6/3 29/8/3 4/7/3 3/5/3
f 29/8/4 30/10/4 5/9/4 4/7/4
f 30/10/5 31/12/5 6/11/5 5/9/5
f 31/12/6 32/14/6 7/13/6 6/11/6
f 32/14/7 33/16/7 8/15/7 7/13/7
f 33/16/8 34/18/8 9/17/8 8/15/8
f 34/18/9 35/20/9 10/19/9 9/17/9
f 35/20/10 36/22/10 11/21/10 10/19/10
f 36/22/11 37/24/11 12/23/11 11/21/11
f 37/24/12 38/26/12 13/25/12 12/23/12
f 38/26/13 39/28/13 14/27/13 13/25/13
f 39/28/14 40/30/14 15/29/14 14/27/14
f 40/30/15 26/32/15 1/31/15 15/29/15
f 41/4/16 42/34/16 17/33/16 16/1/16
f 42/34/17 43/36/17 18/35/17 17/33/17
f 43/36/18 44/38/18 19/37/18 18/35/18
f 44/38/19 45/40/19 20/39/19 19/37/19
f 45/40/20 46/42/20 21/41/20 20/39/20
f 46/42/21 47/44/21 22/43/21 21/41/21
f 47/44/22 48/46/22 23/45/22 22/43/22
f 48/46/23 49/48/23 24/47/23 23/45/23
f 49/48/24 50/50/24 25/49/24 24/47/24
f 50/50/25 41/32/25 16/31/25 25/49/25
f 16/54/26 17/53/26 18/52/26 12/51/26
f 16/54/26 15/57/26 24/56/26 25/55/26
f 18/52/26 19/60/26 20/59/26 9/58/26
f 12/51/26 13/62/26 14/61/26 16/54/26
f 12/51/26 18/52/26 10/64/26 11/63/26
f 20/59/26 21/67/26 22/66/26 6/65/26
f 22/66/26 23/69/26 24/56/26 3/68/26
f 15/57/26 1/71/26 2/70/26 24/56/26
f 9/58/26 20/59/26 7/73/26 8/72/26
f 6/65/26 22/66/26 4/75/26 5/74/26
f 16/54/26 14/61/26 15/57/26
f 9/58/26 10/64/26 18/52/26
f 6/65/26 7/73/26 20/59/26
f 3/68/26 4/75/26 22/66/26
f 24/56/26 2/70/26 3/68/26
f 43/52/27 42/53/27 41/54/27 37/51/27
f 49/56/27 40/57/27 41/54/27 50/55/27
f 45/59/27 44/60/27 43/52/27 34/58/27
f 37/51/27 41/54/27 39/61/27 38/62/27
f 35/64/27 43/52/27 37/51/27 36/63/27
f 47/66/27 46/67/27 45/59/27 31/65/27
f 47/66/27 28/68/27 49/56/27 48/69/27
f 27/70/27 26/71/27 40/57/27 49/56/27
f 32/73/27 45/59/27 34/58/27 33/72/27
f 31/65/27 30/74/27 29/75/27 47/66/27
f 47/66/27 29/75/27 28/68/27
f 49/56/27 28/68/27 27/70/27
f 32/73/27 31/65/27 45/59/27
f 35/64/27 34/58/27 43/52/27
f 40/57/27 39/61/27 41/54/27

